<svg xmlns="http://www.w3.org/2000/svg" viewBox="0 0 70.34 66.04"><defs><style>.cls-1{fill:#94c83d;}</style></defs><title>wand</title><g id="Layer_2" data-name="Layer 2"><g id="Layer_1-2" data-name="Layer 1"><path class="cls-1" d="M8.48,66,0,57.55,45.78,11.77l8.49,8.48ZM4.24,57.55,8.48,61.8,50,20.25,45.78,16Z"/><rect class="cls-1" x="16.3" y="24.19" width="9" height="42.1" transform="translate(38.08 -1.46) rotate(45)"/><polygon class="cls-1" points="37.5 10.36 29.14 12.37 27.14 20.73 25.13 12.37 16.77 10.36 25.13 8.35 27.14 0 29.14 8.35 37.5 10.36"/><polygon class="cls-1" points="70.34 32.55 64.02 34.07 62.5 40.39 60.98 34.07 54.67 32.55 60.98 31.03 62.5 24.71 64.02 31.03 70.34 32.55"/><polygon class="cls-1" points="60.8 5.52 56.9 6.46 55.96 10.36 55.02 6.46 51.11 5.52 55.02 4.58 55.96 0.67 56.9 4.58 60.8 5.52"/></g></g></svg>