<svg xmlns="http://www.w3.org/2000/svg" viewBox="0 0 67.32 69.5"><defs><style>.cls-1{fill:#94c83d;}</style></defs><title>brain</title><g id="Layer_2" data-name="Layer 2"><g id="Layer_1-2" data-name="Layer 1"><path class="cls-1" d="M28.23,0C14.77,0,5.19,10.67,1.49,23.49a5.2,5.2,0,0,0,1.77.41,1.09,1.09,0,0,1,0,2.17A3,3,0,0,0,.68,27.36,42.6,42.6,0,0,0,0,34.75a68.44,68.44,0,0,0,.68,9.57,3,3,0,0,0,2.58,1.29,1.09,1.09,0,0,1,0,2.17,4.2,4.2,0,0,0-1.77.41C4.32,60.13,11.08,69.5,23.89,69.5a8.71,8.71,0,0,0,8.69-8.69V40.18a3.34,3.34,0,0,0-3.26-3.26H22.8a1.09,1.09,0,1,1,0-2.17h6.51a3.34,3.34,0,0,0,3.26-3.26v-13a3.34,3.34,0,0,0-3.26-3.26,1.09,1.09,0,1,1,0-2.17,3.34,3.34,0,0,0,3.26-3.26V4.35A4.36,4.36,0,0,0,28.23,0ZM39.09,0a4.36,4.36,0,0,0-4.34,4.34V9.78A3.34,3.34,0,0,0,38,13a1.09,1.09,0,0,1,0,2.17,3.34,3.34,0,0,0-3.26,3.26v13A3.34,3.34,0,0,0,38,34.75h6.51a1.09,1.09,0,0,1,0,2.17H38a3.34,3.34,0,0,0-3.26,3.26V60.81a8.71,8.71,0,0,0,8.69,8.69c12.81,0,19.57-9.37,22.4-21.31a4.22,4.22,0,0,0-1.77-.41,1.09,1.09,0,1,1,0-2.17,3,3,0,0,0,2.58-1.29,68.44,68.44,0,0,0,.68-9.57,42.6,42.6,0,0,0-.68-7.4,3,3,0,0,0-2.58-1.29,1.09,1.09,0,1,1,0-2.17,5.22,5.22,0,0,0,1.77-.41C62.14,10.67,52.55,0,39.09,0ZM27.15,4.35a1,1,0,0,1,1.09,1.09A3.34,3.34,0,0,1,25,8.69a5.43,5.43,0,1,0,0,10.86,1.09,1.09,0,1,1,0,2.17,7.69,7.69,0,0,1-7.6-7.6A7.69,7.69,0,0,1,25,6.52a1,1,0,0,0,1.09-1.09A1,1,0,0,1,27.15,4.35Zm13,0a1,1,0,0,1,1.09,1.09,1,1,0,0,0,1.09,1.09,7.69,7.69,0,0,1,7.6,7.6,7.69,7.69,0,0,1-7.6,7.6,1.09,1.09,0,1,1,0-2.17,5.43,5.43,0,0,0,0-10.86,3.34,3.34,0,0,1-3.26-3.26A1,1,0,0,1,40.18,4.35ZM29.32,23.89A1,1,0,0,1,30.4,25,5.38,5.38,0,0,1,25,30.41H18.46a5.43,5.43,0,0,0,0,10.86,1.09,1.09,0,1,1,0,2.17,7.6,7.6,0,0,1,0-15.2H25A3.34,3.34,0,0,0,28.23,25,1,1,0,0,1,29.32,23.89Zm8.69,0A1,1,0,0,1,39.09,25a3.34,3.34,0,0,0,3.26,3.26h6.51a7.6,7.6,0,1,1,0,15.2,1.09,1.09,0,1,1,0-2.17,5.43,5.43,0,0,0,0-10.86H42.35A5.38,5.38,0,0,1,36.92,25,1,1,0,0,1,38,23.89ZM25,41.26a5.43,5.43,0,0,1,0,10.86H21.72a2.05,2.05,0,0,0-2.17,2.17v3.26a1.09,1.09,0,1,1-2.17,0V54.29A4.36,4.36,0,0,1,21.72,50H25a3.26,3.26,0,0,0,0-6.51,1.09,1.09,0,1,1,0-2.17Zm17.37,0a1.09,1.09,0,1,1,0,2.17,3.26,3.26,0,0,0,0,6.51h3.26a4.36,4.36,0,0,1,4.34,4.34v3.26a1.09,1.09,0,1,1-2.17,0V54.29a2.05,2.05,0,0,0-2.17-2.17H42.35a5.43,5.43,0,1,1,0-10.86ZM25,56.47a3.34,3.34,0,0,1,3.26,3.26,1.09,1.09,0,0,1-2.17,0,1.09,1.09,0,0,0-2.17,0,5.43,5.43,0,1,1-10.86,0,1.09,1.09,0,0,1,2.17,0,3.26,3.26,0,1,0,6.51,0A3.34,3.34,0,0,1,25,56.47Zm17.37,0a3.34,3.34,0,0,1,3.26,3.26,3.26,3.26,0,0,0,6.51,0,1.09,1.09,0,0,1,2.17,0,5.43,5.43,0,1,1-10.86,0,1.09,1.09,0,0,0-2.17,0,1.09,1.09,0,0,1-2.17,0A3.34,3.34,0,0,1,42.35,56.47Z"/></g></g></svg>